<mxfile host="app.diagrams.net" modified="2020-12-23T08:29:26.241Z" agent="5.0 (X11; Linux x86_64) AppleWebKit/537.36 (KHTML, like Gecko) Chrome/87.0.4280.88 Safari/537.36" etag="1l7iaypvY1Yc-UGcZPiW" version="14.1.1" type="github">
  <diagram name="Page-1" id="9f46799a-70d6-7492-0946-bef42562c5a5">
    <mxGraphModel dx="1186" dy="1104" grid="1" gridSize="10" guides="1" tooltips="1" connect="1" arrows="1" fold="1" page="1" pageScale="1" pageWidth="1100" pageHeight="850" background="#ffffff" math="0" shadow="0">
      <root>
        <mxCell id="0" />
        <mxCell id="1" parent="0" />
        <mxCell id="1chwfoS5qHe_nQigtcef-9" style="edgeStyle=orthogonalEdgeStyle;rounded=0;orthogonalLoop=1;jettySize=auto;html=1;" edge="1" parent="1" source="1chwfoS5qHe_nQigtcef-1" target="1chwfoS5qHe_nQigtcef-3">
          <mxGeometry relative="1" as="geometry" />
        </mxCell>
        <mxCell id="1chwfoS5qHe_nQigtcef-15" value="1x HD / 4x SD" style="edgeLabel;html=1;align=center;verticalAlign=middle;resizable=0;points=[];" vertex="1" connectable="0" parent="1chwfoS5qHe_nQigtcef-9">
          <mxGeometry x="0.2321" y="-2" relative="1" as="geometry">
            <mxPoint x="-17" y="9" as="offset" />
          </mxGeometry>
        </mxCell>
        <mxCell id="1chwfoS5qHe_nQigtcef-1" value="AWS MediaLive" style="outlineConnect=0;fontColor=#232F3E;gradientColor=#F78E04;gradientDirection=north;fillColor=#D05C17;strokeColor=#ffffff;dashed=0;verticalLabelPosition=bottom;verticalAlign=top;align=center;html=1;fontSize=12;fontStyle=0;aspect=fixed;shape=mxgraph.aws4.resourceIcon;resIcon=mxgraph.aws4.elemental_medialive;" vertex="1" parent="1">
          <mxGeometry x="360" y="160" width="78" height="78" as="geometry" />
        </mxCell>
        <mxCell id="1chwfoS5qHe_nQigtcef-3" value="AWS MediaStore" style="outlineConnect=0;fontColor=#232F3E;gradientColor=#F78E04;gradientDirection=north;fillColor=#D05C17;strokeColor=#ffffff;dashed=0;verticalLabelPosition=bottom;verticalAlign=top;align=center;html=1;fontSize=12;fontStyle=0;aspect=fixed;shape=mxgraph.aws4.resourceIcon;resIcon=mxgraph.aws4.elemental_mediastore;" vertex="1" parent="1">
          <mxGeometry x="550" y="160" width="78" height="78" as="geometry" />
        </mxCell>
        <mxCell id="1chwfoS5qHe_nQigtcef-12" style="edgeStyle=orthogonalEdgeStyle;rounded=0;orthogonalLoop=1;jettySize=auto;html=1;" edge="1" parent="1" source="1chwfoS5qHe_nQigtcef-4" target="1chwfoS5qHe_nQigtcef-3">
          <mxGeometry relative="1" as="geometry" />
        </mxCell>
        <mxCell id="1chwfoS5qHe_nQigtcef-4" value="AWS CloudFront" style="outlineConnect=0;fontColor=#232F3E;gradientColor=#945DF2;gradientDirection=north;fillColor=#5A30B5;strokeColor=#ffffff;dashed=0;verticalLabelPosition=bottom;verticalAlign=top;align=center;html=1;fontSize=12;fontStyle=0;aspect=fixed;shape=mxgraph.aws4.resourceIcon;resIcon=mxgraph.aws4.cloudfront;" vertex="1" parent="1">
          <mxGeometry x="760" y="160" width="78" height="78" as="geometry" />
        </mxCell>
        <mxCell id="1chwfoS5qHe_nQigtcef-11" style="edgeStyle=orthogonalEdgeStyle;rounded=0;orthogonalLoop=1;jettySize=auto;html=1;" edge="1" parent="1" source="1chwfoS5qHe_nQigtcef-5" target="1chwfoS5qHe_nQigtcef-4">
          <mxGeometry relative="1" as="geometry" />
        </mxCell>
        <mxCell id="1chwfoS5qHe_nQigtcef-14" value="HLS (adaptive)" style="edgeLabel;html=1;align=center;verticalAlign=middle;resizable=0;points=[];" vertex="1" connectable="0" parent="1chwfoS5qHe_nQigtcef-11">
          <mxGeometry x="-0.1579" y="-4" relative="1" as="geometry">
            <mxPoint x="-24" y="16" as="offset" />
          </mxGeometry>
        </mxCell>
        <mxCell id="1chwfoS5qHe_nQigtcef-5" value="HLS.js" style="image;html=1;image=img/lib/clip_art/computers/Monitor_128x128.png" vertex="1" parent="1">
          <mxGeometry x="970" y="158" width="80" height="80" as="geometry" />
        </mxCell>
        <mxCell id="1chwfoS5qHe_nQigtcef-8" style="edgeStyle=orthogonalEdgeStyle;rounded=0;orthogonalLoop=1;jettySize=auto;html=1;" edge="1" parent="1" source="1chwfoS5qHe_nQigtcef-7" target="1chwfoS5qHe_nQigtcef-1">
          <mxGeometry relative="1" as="geometry" />
        </mxCell>
        <mxCell id="1chwfoS5qHe_nQigtcef-13" value="RTMP (HD)" style="edgeLabel;html=1;align=center;verticalAlign=middle;resizable=0;points=[];" vertex="1" connectable="0" parent="1chwfoS5qHe_nQigtcef-8">
          <mxGeometry x="-0.2583" y="-4" relative="1" as="geometry">
            <mxPoint x="14" y="16" as="offset" />
          </mxGeometry>
        </mxCell>
        <mxCell id="1chwfoS5qHe_nQigtcef-7" value="OBS Studio" style="image;html=1;image=img/lib/clip_art/computers/Laptop_128x128.png" vertex="1" parent="1">
          <mxGeometry x="130" y="160" width="80" height="80" as="geometry" />
        </mxCell>
        <mxCell id="1chwfoS5qHe_nQigtcef-16" value="&lt;font style=&quot;font-size: 24px&quot;&gt;Single-Pipeline Streaming&lt;/font&gt;" style="text;html=1;strokeColor=none;fillColor=none;align=center;verticalAlign=middle;whiteSpace=wrap;rounded=0;" vertex="1" parent="1">
          <mxGeometry x="260" y="60" width="600" height="20" as="geometry" />
        </mxCell>
      </root>
    </mxGraphModel>
  </diagram>
</mxfile>
